<?xml version="1.0" standalone="no"?><svg xmlns:xlink="http://www.w3.org/1999/xlink" xmlns="http://www.w3.org/2000/svg" viewBox="0 0 1000 545.4545454545455" preserveAspectRatio="xMaxYMax slice"><g transform="scale(1.1154489682097044)"><rect x="0" y="0" width="896.5" height="489" fill="#828282"/><rect x="0" y="0" width="81.5" height="81.5" fill="#a26e7b"/><polygon points="81.5,0 81.5,81.5 0,81.5" fill="#7e4f92"/><rect x="81.5" y="0" width="81.5" height="81.5" fill="#7c359a"/><path d="M 81.5 81.5 A 81.5 81.5 0 0 0 163 0 L 81.5 0" fill="#f33d68"/><rect x="163" y="0" width="81.5" height="81.5" fill="#7c3a99"/><rect x="163" y="0" width="81.5" height="81.5" fill="#806b89"/><rect x="244.5" y="0" width="81.5" height="81.5" fill="#bc5e75"/><path d="M 244.5 81.5 A 81.5 81.5 0 0 1  326 0 L 326 81.5" fill="#94777e"/><rect x="326" y="0" width="81.5" height="81.5" fill="#828282"/><rect x="326" y="0" width="40.75" height="40.75" fill="#7c3999"/><path d="M 326 0 A 40.75 40.75 0 0 1 366.75 40.75 L 326 40.75" fill="#92787e"/><rect x="366.75" y="0" width="40.75" height="40.75" fill="#f33d68"/><path d="M 366.75 40.75 A 40.75 40.75 0 0 1  407.5 0 L 407.5 40.75" fill="#7e5490"/><rect x="326" y="40.75" width="40.75" height="40.75" fill="#817287"/><path d="M 326 81.5 A 40.75 40.75 0 0 0 366.75 40.75 L 326 40.75" fill="#828083"/><rect x="366.75" y="40.75" width="40.75" height="40.75" fill="#c25b73"/><path d="M 366.75 40.75 A 40.75 40.75 0 0 0 407.5 81.5 L 407.5 40.75" fill="#a56d7a"/><rect x="407.5" y="0" width="81.5" height="81.5" fill="#7f598f"/><rect x="407.5" y="0" width="81.5" height="81.5" fill="#f73a67"/><rect x="489" y="0" width="81.5" height="81.5" fill="#828282"/><rect x="489" y="0" width="40.75" height="40.75" fill="#b46376"/><polygon points="529.75,0 529.75,40.75 489,40.75" fill="#7c339b"/><rect x="529.75" y="0" width="40.75" height="40.75" fill="#7d4196"/><polygon points="529.75,0 570.5,40.75 529.75,40.75" fill="#f03e69"/><rect x="489" y="40.75" width="40.75" height="40.75" fill="#828282"/><polygon points="489,40.75 529.75,40.75 529.75,81.5" fill="#7e4d93"/><rect x="529.75" y="40.75" width="40.75" height="40.75" fill="#7a1da2"/><polygon points="529.75,40.75 570.5,40.75 529.75,81.5" fill="#c75872"/><rect x="570.5" y="0" width="81.5" height="81.5" fill="#828282"/><rect x="570.5" y="0" width="40.75" height="40.75" fill="#828282"/><circle cx="590.875" cy="20.375" r="20.375" fill="#7f5b8e"/><rect x="611.25" y="0" width="40.75" height="40.75" fill="#7a1ea1"/><rect x="611.25" y="0" width="40.75" height="40.75" fill="#af6677"/><rect x="570.5" y="40.75" width="40.75" height="40.75" fill="#7f5b8e"/><circle cx="590.875" cy="61.125" r="20.375" fill="#7b2f9c"/><rect x="611.25" y="40.75" width="40.75" height="40.75" fill="#7a1fa1"/><rect x="611.25" y="40.75" width="40.75" height="40.75" fill="#7c3d98"/><rect x="652" y="0" width="81.5" height="81.5" fill="#828282"/><rect x="652" y="0" width="40.75" height="40.75" fill="#806b89"/><polygon points="692.75,0 692.75,40.75 652,40.75" fill="#887e81"/><rect x="692.75" y="0" width="40.75" height="40.75" fill="#fa3866"/><polygon points="692.75,0 733.5,0 692.75,40.75" fill="#7b299e"/><rect x="652" y="40.75" width="40.75" height="40.75" fill="#95767e"/><polygon points="652,40.75 692.75,40.75 692.75,81.5" fill="#7c329b"/><rect x="692.75" y="40.75" width="40.75" height="40.75" fill="#f63a67"/><polygon points="692.75,40.75 733.5,81.5 692.75,81.5" fill="#817586"/><rect x="733.5" y="0" width="81.5" height="81.5" fill="#da4c6e"/><polygon points="733.5,0 815,0 815,81.5" fill="#97757d"/><rect x="815" y="0" width="81.5" height="81.5" fill="#828282"/><rect x="815" y="0" width="40.75" height="40.75" fill="#7d4196"/><path d="M 815 40.75 A 40.75 40.75 0 0 1 855.75 0 L 855.75 10.1875 A 30.5625 30.5625 0 0 0 825.1875 40.75" fill="#838182"/><rect x="855.75" y="0" width="40.75" height="40.75" fill="#a76b79"/><path d="M 855.75 0 A 40.75 40.75 0 0 1 896.5 40.75 L 886.3125 40.75 A 30.5625 30.5625 0 0 0 855.75 10.1875" fill="#7a1ca2"/><rect x="815" y="40.75" width="40.75" height="40.75" fill="#80648b"/><path d="M 815 40.75 A 40.75 40.75 0 0 0 855.75 81.5 L 855.75 71.3125 A 30.5625 30.5625 0 0 1 825.1875 40.75" fill="#7a1ea1"/><rect x="855.75" y="40.75" width="40.75" height="40.75" fill="#7c379a"/><path d="M 855.75 81.5 A 40.75 40.75 0 0 0 896.5 40.75 L 886.3125 40.75 A 30.5625 30.5625 0 0 1 855.75 71.3125" fill="#7a1ca2"/><rect x="0" y="81.5" width="81.5" height="81.5" fill="#828282"/><rect x="0" y="81.5" width="40.75" height="40.75" fill="#7b2d9d"/><polygon points="40.75,81.5 40.75,122.25 0,122.25" fill="#92787e"/><rect x="40.75" y="81.5" width="40.75" height="40.75" fill="#7b2f9c"/><polygon points="40.75,81.5 81.5,122.25 40.75,122.25" fill="#7b2d9d"/><rect x="0" y="122.25" width="40.75" height="40.75" fill="#c75872"/><polygon points="0,122.25 40.75,122.25 40.75,163" fill="#817087"/><rect x="40.75" y="122.25" width="40.75" height="40.75" fill="#897e80"/><polygon points="40.75,122.25 81.5,122.25 40.75,163" fill="#8f7a7f"/><rect x="81.5" y="81.5" width="81.5" height="81.5" fill="#828282"/><rect x="81.5" y="81.5" width="40.75" height="40.75" fill="#817a85"/><path d="M 81.5 122.25 A 40.75 40.75 0 0 1 122.25 81.5 L 122.25 91.6875 A 30.5625 30.5625 0 0 0 91.6875 122.25" fill="#7d4296"/><rect x="122.25" y="81.5" width="40.75" height="40.75" fill="#b46376"/><path d="M 122.25 81.5 A 40.75 40.75 0 0 1 163 122.25 L 152.8125 122.25 A 30.5625 30.5625 0 0 0 122.25 91.6875" fill="#e4466b"/><rect x="81.5" y="122.25" width="40.75" height="40.75" fill="#ce5370"/><path d="M 81.5 122.25 A 40.75 40.75 0 0 0 122.25 163 L 122.25 152.8125 A 30.5625 30.5625 0 0 1 91.6875 122.25" fill="#806b89"/><rect x="122.25" y="122.25" width="40.75" height="40.75" fill="#8d7b7f"/><path d="M 122.25 163 A 40.75 40.75 0 0 0 163 122.25 L 152.8125 122.25 A 30.5625 30.5625 0 0 1 122.25 152.8125" fill="#b76176"/><rect x="163" y="81.5" width="81.5" height="81.5" fill="#828282"/><rect x="163" y="81.5" width="40.75" height="40.75" fill="#7d4196"/><circle cx="183.375" cy="101.875" r="20.375" fill="#96757d"/><rect x="203.75" y="81.5" width="40.75" height="40.75" fill="#ae6778"/><rect x="203.75" y="81.5" width="40.75" height="40.75" fill="#e8436a"/><rect x="163" y="122.25" width="40.75" height="40.75" fill="#7d4495"/><circle cx="183.375" cy="142.625" r="20.375" fill="#cd5471"/><rect x="203.75" y="122.25" width="40.75" height="40.75" fill="#fc3766"/><rect x="203.75" y="122.25" width="40.75" height="40.75" fill="#98757d"/><rect x="244.5" y="81.5" width="81.5" height="81.5" fill="#828282"/><rect x="244.5" y="81.5" width="40.75" height="40.75" fill="#b56376"/><path d="M 244.5 122.25 A 40.75 40.75 0 0 1 285.25 81.5 L 285.25 91.6875 A 30.5625 30.5625 0 0 0 254.6875 122.25" fill="#7c349a"/><rect x="285.25" y="81.5" width="40.75" height="40.75" fill="#cc5471"/><path d="M 285.25 81.5 A 40.75 40.75 0 0 1 326 122.25 L 315.8125 122.25 A 30.5625 30.5625 0 0 0 285.25 91.6875" fill="#7d3e97"/><rect x="244.5" y="122.25" width="40.75" height="40.75" fill="#817486"/><path d="M 244.5 122.25 A 40.75 40.75 0 0 0 285.25 163 L 285.25 152.8125 A 30.5625 30.5625 0 0 1 254.6875 122.25" fill="#7d4396"/><rect x="285.25" y="122.25" width="40.75" height="40.75" fill="#817287"/><path d="M 285.25 163 A 40.75 40.75 0 0 0 326 122.25 L 315.8125 122.25 A 30.5625 30.5625 0 0 1 285.25 152.8125" fill="#7a1da2"/><rect x="326" y="81.5" width="81.5" height="81.5" fill="#d64e6f"/><path d="M 326 163 A 81.5 81.5 0 0 0 407.5 81.5 L 326 81.5" fill="#7912a5"/><rect x="407.5" y="81.5" width="81.5" height="81.5" fill="#7a21a0"/><rect x="407.5" y="81.5" width="81.5" height="81.5" fill="#fd3666"/><rect x="489" y="81.5" width="81.5" height="81.5" fill="#828282"/><rect x="489" y="81.5" width="40.75" height="40.75" fill="#7a1ca2"/><path d="M 489 122.25 A 40.75 40.75 0 0 1  529.75 81.5 L 529.75 122.25" fill="#817187"/><rect x="529.75" y="81.5" width="40.75" height="40.75" fill="#8a7d80"/><path d="M 529.75 81.5 A 40.75 40.75 0 0 1 570.5 122.25 L 529.75 122.25" fill="#7916a4"/><rect x="489" y="122.25" width="40.75" height="40.75" fill="#c85772"/><path d="M 489 122.25 A 40.75 40.75 0 0 0 529.75 163 L 529.75 122.25" fill="#ef3f69"/><rect x="529.75" y="122.25" width="40.75" height="40.75" fill="#7918a3"/><path d="M 529.75 163 A 40.75 40.75 0 0 0 570.5 122.25 L 529.75 122.25" fill="#7d4396"/><rect x="570.5" y="81.5" width="81.5" height="81.5" fill="#7c349a"/><polygon points="570.5,81.5 652,163 570.5,163" fill="#7b309c"/><rect x="652" y="81.5" width="81.5" height="81.5" fill="#c75772"/><path d="M 652 81.5 A 81.5 81.5 0 0 1 733.5 163 L 652 163" fill="#817985"/><rect x="733.5" y="81.5" width="81.5" height="81.5" fill="#b06677"/><rect x="733.5" y="81.5" width="81.5" height="81.5" fill="#c25b73"/><rect x="815" y="81.5" width="81.5" height="81.5" fill="#7c3c98"/><rect x="815" y="81.5" width="81.5" height="81.5" fill="#7f5b8e"/><rect x="0" y="163" width="81.5" height="81.5" fill="#828282"/><rect x="0" y="163" width="40.75" height="40.75" fill="#ba5f75"/><circle cx="20.375" cy="183.375" r="20.375" fill="#fd3665"/><rect x="40.75" y="163" width="40.75" height="40.75" fill="#7916a4"/><rect x="40.75" y="163" width="40.75" height="40.75" fill="#80678b"/><rect x="0" y="203.75" width="40.75" height="40.75" fill="#897e80"/><circle cx="20.375" cy="224.125" r="20.375" fill="#827c84"/><rect x="40.75" y="203.75" width="40.75" height="40.75" fill="#7b2b9d"/><rect x="40.75" y="203.75" width="40.75" height="40.75" fill="#b56276"/><rect x="81.5" y="163" width="81.5" height="81.5" fill="#887e80"/><polygon points="81.5,163 163,244.5 81.5,244.5" fill="#7a1aa3"/><rect x="163" y="163" width="81.5" height="81.5" fill="#a46d7a"/><rect x="163" y="163" width="81.5" height="81.5" fill="#bb5f75"/><rect x="244.5" y="163" width="81.5" height="81.5" fill="#b86176"/><polygon points="244.5,163 326,163 244.5,244.5" fill="#7c3899"/><rect x="326" y="163" width="81.5" height="81.5" fill="#bf5c74"/><polygon points="326,163 407.5,163 407.5,244.5" fill="#806c89"/><rect x="407.5" y="163" width="81.5" height="81.5" fill="#7d4296"/><path d="M 407.5 244.5 A 81.5 81.5 0 0 1  489 163 L 407.5 244.5 A 81.5 81.5 0 0 0 489 163" fill="#7f5c8e"/><rect x="489" y="163" width="81.5" height="81.5" fill="#7a1aa3"/><rect x="489" y="163" width="81.5" height="81.5" fill="#7b2b9d"/><rect x="570.5" y="163" width="81.5" height="81.5" fill="#827d83"/><path d="M 570.5 163 A 81.5 81.5 0 0 1  652 244.5 L 570.5 163 A 81.5 81.5 0 0 0 652 244.5" fill="#d64f6f"/><rect x="652" y="163" width="81.5" height="81.5" fill="#b96075"/><rect x="652" y="163" width="81.5" height="81.5" fill="#b26477"/><rect x="733.5" y="163" width="81.5" height="81.5" fill="#e5456b"/><polygon points="733.5,163 815,244.5 733.5,244.5" fill="#7a249f"/><rect x="815" y="163" width="81.5" height="81.5" fill="#828282"/><rect x="815" y="163" width="40.75" height="40.75" fill="#827e83"/><polygon points="855.75,163 855.75,203.75 815,203.75" fill="#7f5a8f"/><rect x="855.75" y="163" width="40.75" height="40.75" fill="#c65872"/><polygon points="855.75,163 896.5,203.75 855.75,203.75" fill="#bd5e74"/><rect x="815" y="203.75" width="40.75" height="40.75" fill="#80638c"/><polygon points="815,203.75 855.75,203.75 855.75,244.5" fill="#e1486c"/><rect x="855.75" y="203.75" width="40.75" height="40.75" fill="#7a20a1"/><polygon points="855.75,203.75 896.5,203.75 855.75,244.5" fill="#7b259f"/><rect x="0" y="244.5" width="81.5" height="81.5" fill="#828282"/><rect x="0" y="244.5" width="40.75" height="40.75" fill="#b56376"/><path d="M 0 285.25 A 40.75 40.75 0 0 1 40.75 244.5 L 40.75 254.6875 A 30.5625 30.5625 0 0 0 10.1875 285.25" fill="#bb5f75"/><rect x="40.75" y="244.5" width="40.75" height="40.75" fill="#7c319b"/><path d="M 40.75 244.5 A 40.75 40.75 0 0 1 81.5 285.25 L 71.3125 285.25 A 30.5625 30.5625 0 0 0 40.75 254.6875" fill="#b46376"/><rect x="0" y="285.25" width="40.75" height="40.75" fill="#cb5571"/><path d="M 0 285.25 A 40.75 40.75 0 0 0 40.75 326 L 40.75 315.8125 A 30.5625 30.5625 0 0 1 10.1875 285.25" fill="#7b259f"/><rect x="40.75" y="285.25" width="40.75" height="40.75" fill="#7912a5"/><path d="M 40.75 326 A 40.75 40.75 0 0 0 81.5 285.25 L 71.3125 285.25 A 30.5625 30.5625 0 0 1 40.75 315.8125" fill="#7b269f"/><rect x="81.5" y="244.5" width="81.5" height="81.5" fill="#828282"/><rect x="81.5" y="244.5" width="40.75" height="40.75" fill="#7b289e"/><circle cx="101.875" cy="264.875" r="20.375" fill="#7d4296"/><rect x="122.25" y="244.5" width="40.75" height="40.75" fill="#c85772"/><rect x="122.25" y="244.5" width="40.75" height="40.75" fill="#7e4e92"/><rect x="81.5" y="285.25" width="40.75" height="40.75" fill="#bc5e74"/><circle cx="101.875" cy="305.625" r="20.375" fill="#7a249f"/><rect x="122.25" y="285.25" width="40.75" height="40.75" fill="#7f628c"/><rect x="122.25" y="285.25" width="40.75" height="40.75" fill="#7912a5"/><rect x="163" y="244.5" width="81.5" height="81.5" fill="#828282"/><rect x="163" y="244.5" width="40.75" height="40.75" fill="#7917a4"/><path d="M 163 285.25 A 40.75 40.75 0 0 0 203.75 244.5 L 163 244.5" fill="#7e5590"/><rect x="203.75" y="244.5" width="40.75" height="40.75" fill="#817088"/><path d="M 203.75 244.5 A 40.75 40.75 0 0 0 244.5 285.25 L 244.5 244.5" fill="#ed4069"/><rect x="163" y="285.25" width="40.75" height="40.75" fill="#7d3e97"/><path d="M 163 285.25 A 40.75 40.75 0 0 1 203.75 326 L 163 326" fill="#7f5a8e"/><rect x="203.75" y="285.25" width="40.75" height="40.75" fill="#db4b6d"/><path d="M 203.75 326 A 40.75 40.75 0 0 1  244.5 285.25 L 244.5 326" fill="#aa6979"/><rect x="244.5" y="244.5" width="81.5" height="81.5" fill="#828282"/><rect x="244.5" y="244.5" width="40.75" height="40.75" fill="#e1476c"/><path d="M 244.5 285.25 A 40.75 40.75 0 0 1 285.25 244.5 L 285.25 254.6875 A 30.5625 30.5625 0 0 0 254.6875 285.25" fill="#7a1da2"/><rect x="285.25" y="244.5" width="40.75" height="40.75" fill="#7c329b"/><path d="M 285.25 244.5 A 40.75 40.75 0 0 1 326 285.25 L 315.8125 285.25 A 30.5625 30.5625 0 0 0 285.25 254.6875" fill="#a56c7a"/><rect x="244.5" y="285.25" width="40.75" height="40.75" fill="#bf5c74"/><path d="M 244.5 285.25 A 40.75 40.75 0 0 0 285.25 326 L 285.25 315.8125 A 30.5625 30.5625 0 0 1 254.6875 285.25" fill="#817686"/><rect x="285.25" y="285.25" width="40.75" height="40.75" fill="#d74e6e"/><path d="M 285.25 326 A 40.75 40.75 0 0 0 326 285.25 L 315.8125 285.25 A 30.5625 30.5625 0 0 1 285.25 315.8125" fill="#bb5f75"/><rect x="326" y="244.5" width="81.5" height="81.5" fill="#828282"/><rect x="326" y="244.5" width="40.75" height="40.75" fill="#7f5f8d"/><polygon points="366.75,244.5 366.75,285.25 326,285.25" fill="#80668b"/><rect x="366.75" y="244.5" width="40.75" height="40.75" fill="#80678a"/><polygon points="366.75,244.5 407.5,285.25 366.75,285.25" fill="#91797e"/><rect x="326" y="285.25" width="40.75" height="40.75" fill="#7b279e"/><polygon points="326,285.25 366.75,285.25 366.75,326" fill="#f13e68"/><rect x="366.75" y="285.25" width="40.75" height="40.75" fill="#b06577"/><polygon points="366.75,285.25 407.5,285.25 366.75,326" fill="#7c3b98"/><rect x="407.5" y="244.5" width="81.5" height="81.5" fill="#92787e"/><path d="M 407.5 244.5 A 81.5 81.5 0 0 0 489 326 L 489 244.5" fill="#e3476c"/><rect x="489" y="244.5" width="81.5" height="81.5" fill="#828282"/><rect x="489" y="244.5" width="40.75" height="40.75" fill="#7d4296"/><circle cx="509.375" cy="264.875" r="20.375" fill="#817885"/><rect x="529.75" y="244.5" width="40.75" height="40.75" fill="#be5d74"/><rect x="529.75" y="244.5" width="40.75" height="40.75" fill="#7e5391"/><rect x="489" y="285.25" width="40.75" height="40.75" fill="#817686"/><circle cx="509.375" cy="305.625" r="20.375" fill="#817287"/><rect x="529.75" y="285.25" width="40.75" height="40.75" fill="#7d4495"/><rect x="529.75" y="285.25" width="40.75" height="40.75" fill="#ec4169"/><rect x="570.5" y="244.5" width="81.5" height="81.5" fill="#817187"/><polygon points="570.5,244.5 652,244.5 652,326" fill="#817785"/><rect x="652" y="244.5" width="81.5" height="81.5" fill="#828282"/><rect x="652" y="244.5" width="40.75" height="40.75" fill="#7e5590"/><path d="M 652 285.25 A 40.75 40.75 0 0 0 692.75 244.5 L 652 244.5" fill="#f03e68"/><rect x="692.75" y="244.5" width="40.75" height="40.75" fill="#7917a3"/><path d="M 692.75 244.5 A 40.75 40.75 0 0 0 733.5 285.25 L 733.5 244.5" fill="#af6678"/><rect x="652" y="285.25" width="40.75" height="40.75" fill="#828282"/><path d="M 652 285.25 A 40.75 40.75 0 0 1 692.75 326 L 652 326" fill="#7b2e9c"/><rect x="692.75" y="285.25" width="40.75" height="40.75" fill="#7f5e8d"/><path d="M 692.75 326 A 40.75 40.75 0 0 1  733.5 285.25 L 733.5 326" fill="#9b727c"/><rect x="733.5" y="244.5" width="81.5" height="81.5" fill="#80668b"/><path d="M 733.5 244.5 A 81.5 81.5 0 0 1  815 326 L 733.5 244.5 A 81.5 81.5 0 0 0 815 326" fill="#897e80"/><rect x="815" y="244.5" width="81.5" height="81.5" fill="#828282"/><rect x="815" y="244.5" width="40.75" height="40.75" fill="#9c727c"/><polygon points="855.75,244.5 855.75,285.25 815,285.25" fill="#7c3799"/><rect x="855.75" y="244.5" width="40.75" height="40.75" fill="#cd5471"/><polygon points="855.75,244.5 896.5,244.5 855.75,285.25" fill="#f63b67"/><rect x="815" y="285.25" width="40.75" height="40.75" fill="#b16577"/><polygon points="815,285.25 855.75,285.25 855.75,326" fill="#8a7d80"/><rect x="855.75" y="285.25" width="40.75" height="40.75" fill="#7a20a1"/><polygon points="855.75,285.25 896.5,326 855.75,326" fill="#d74e6e"/><rect x="0" y="326" width="81.5" height="81.5" fill="#7e4f92"/><rect x="0" y="326" width="81.5" height="81.5" fill="#806d88"/><rect x="81.5" y="326" width="81.5" height="81.5" fill="#fe3665"/><rect x="81.5" y="326" width="81.5" height="81.5" fill="#7b2c9d"/><rect x="163" y="326" width="81.5" height="81.5" fill="#828282"/><rect x="163" y="326" width="40.75" height="40.75" fill="#817486"/><polygon points="203.75,326 203.75,366.75 163,366.75" fill="#b26477"/><rect x="203.75" y="326" width="40.75" height="40.75" fill="#7d4495"/><polygon points="203.75,326 244.5,326 203.75,366.75" fill="#877f81"/><rect x="163" y="366.75" width="40.75" height="40.75" fill="#e5456b"/><polygon points="163,366.75 203.75,366.75 203.75,407.5" fill="#e0486c"/><rect x="203.75" y="366.75" width="40.75" height="40.75" fill="#ea426a"/><polygon points="203.75,366.75 244.5,407.5 203.75,407.5" fill="#838282"/><rect x="244.5" y="326" width="81.5" height="81.5" fill="#f13e68"/><path d="M 244.5 407.5 A 81.5 81.5 0 0 0 326 326 L 244.5 326" fill="#7d4794"/><rect x="326" y="326" width="81.5" height="81.5" fill="#99747d"/><polygon points="326,326 407.5,326 326,407.5" fill="#f53b67"/><rect x="407.5" y="326" width="81.5" height="81.5" fill="#c05c74"/><path d="M 407.5 407.5 A 81.5 81.5 0 0 1  489 326 L 407.5 407.5 A 81.5 81.5 0 0 0 489 326" fill="#b76276"/><rect x="489" y="326" width="81.5" height="81.5" fill="#e7446b"/><polygon points="489,326 570.5,326 570.5,407.5" fill="#a36e7a"/><rect x="570.5" y="326" width="81.5" height="81.5" fill="#7a19a3"/><polygon points="570.5,326 652,326 570.5,407.5" fill="#7e5490"/><rect x="652" y="326" width="81.5" height="81.5" fill="#d84d6e"/><rect x="652" y="326" width="81.5" height="81.5" fill="#7a22a0"/><rect x="733.5" y="326" width="81.5" height="81.5" fill="#8e7b7f"/><rect x="733.5" y="326" width="81.5" height="81.5" fill="#7e5590"/><rect x="815" y="326" width="81.5" height="81.5" fill="#c75872"/><polygon points="896.5,326 896.5,407.5 815,407.5" fill="#7a22a0"/><rect x="0" y="407.5" width="81.5" height="81.5" fill="#828282"/><rect x="0" y="407.5" width="40.75" height="40.75" fill="#817287"/><path d="M 0 407.5 A 40.75 40.75 0 0 0 40.75 448.25 L 40.75 407.5" fill="#ba5f75"/><rect x="40.75" y="407.5" width="40.75" height="40.75" fill="#ed4069"/><path d="M 40.75 448.25 A 40.75 40.75 0 0 0 81.5 407.5 L 40.75 407.5" fill="#ff3565"/><rect x="0" y="448.25" width="40.75" height="40.75" fill="#8e7b7f"/><path d="M 0 489 A 40.75 40.75 0 0 1  40.75 448.25 L 40.75 489" fill="#7f5f8d"/><rect x="40.75" y="448.25" width="40.75" height="40.75" fill="#e2476c"/><path d="M 40.75 448.25 A 40.75 40.75 0 0 1 81.5 489 L 40.75 489" fill="#e8436a"/><rect x="81.5" y="407.5" width="81.5" height="81.5" fill="#828282"/><rect x="81.5" y="407.5" width="40.75" height="40.75" fill="#7a249f"/><path d="M 81.5 407.5 A 40.75 40.75 0 0 1 122.25 448.25 L 81.5 448.25" fill="#8d7b7f"/><rect x="122.25" y="407.5" width="40.75" height="40.75" fill="#80658b"/><path d="M 122.25 448.25 A 40.75 40.75 0 0 1  163 407.5 L 163 448.25" fill="#ad6778"/><rect x="81.5" y="448.25" width="40.75" height="40.75" fill="#d64e6e"/><path d="M 81.5 489 A 40.75 40.75 0 0 0 122.25 448.25 L 81.5 448.25" fill="#7a21a0"/><rect x="122.25" y="448.25" width="40.75" height="40.75" fill="#dc4b6d"/><path d="M 122.25 448.25 A 40.75 40.75 0 0 0 163 489 L 163 448.25" fill="#7915a4"/><rect x="163" y="407.5" width="81.5" height="81.5" fill="#828282"/><rect x="163" y="407.5" width="40.75" height="40.75" fill="#7d4595"/><circle cx="183.375" cy="427.875" r="20.375" fill="#877f81"/><rect x="203.75" y="407.5" width="40.75" height="40.75" fill="#817b84"/><rect x="203.75" y="407.5" width="40.75" height="40.75" fill="#80698a"/><rect x="163" y="448.25" width="40.75" height="40.75" fill="#ca5671"/><circle cx="183.375" cy="468.625" r="20.375" fill="#9c727c"/><rect x="203.75" y="448.25" width="40.75" height="40.75" fill="#fa3866"/><rect x="203.75" y="448.25" width="40.75" height="40.75" fill="#a56c7a"/><rect x="244.5" y="407.5" width="81.5" height="81.5" fill="#a86b79"/><polygon points="244.5,407.5 326,489 244.5,489" fill="#7a1ea1"/><rect x="326" y="407.5" width="81.5" height="81.5" fill="#828282"/><rect x="326" y="407.5" width="40.75" height="40.75" fill="#7c3a98"/><circle cx="346.375" cy="427.875" r="20.375" fill="#ba5f75"/><rect x="366.75" y="407.5" width="40.75" height="40.75" fill="#7f618c"/><rect x="366.75" y="407.5" width="40.75" height="40.75" fill="#c65872"/><rect x="326" y="448.25" width="40.75" height="40.75" fill="#7a1ba2"/><circle cx="346.375" cy="468.625" r="20.375" fill="#f73a67"/><rect x="366.75" y="448.25" width="40.75" height="40.75" fill="#80648b"/><rect x="366.75" y="448.25" width="40.75" height="40.75" fill="#7a1ca2"/><rect x="407.5" y="407.5" width="81.5" height="81.5" fill="#828282"/><rect x="407.5" y="407.5" width="40.75" height="40.75" fill="#f43c68"/><path d="M 407.5 448.25 A 40.75 40.75 0 0 1 448.25 407.5 L 448.25 417.6875 A 30.5625 30.5625 0 0 0 417.6875 448.25" fill="#817985"/><rect x="448.25" y="407.5" width="40.75" height="40.75" fill="#7f5a8f"/><path d="M 448.25 407.5 A 40.75 40.75 0 0 1 489 448.25 L 478.8125 448.25 A 30.5625 30.5625 0 0 0 448.25 417.6875" fill="#7e4d93"/><rect x="407.5" y="448.25" width="40.75" height="40.75" fill="#f73a67"/><path d="M 407.5 448.25 A 40.75 40.75 0 0 0 448.25 489 L 448.25 478.8125 A 30.5625 30.5625 0 0 1 417.6875 448.25" fill="#7e5191"/><rect x="448.25" y="448.25" width="40.75" height="40.75" fill="#fc3766"/><path d="M 448.25 489 A 40.75 40.75 0 0 0 489 448.25 L 478.8125 448.25 A 30.5625 30.5625 0 0 1 448.25 478.8125" fill="#7e4a93"/><rect x="489" y="407.5" width="81.5" height="81.5" fill="#828282"/><rect x="489" y="407.5" width="40.75" height="40.75" fill="#817a85"/><polygon points="529.75,407.5 529.75,448.25 489,448.25" fill="#838282"/><rect x="529.75" y="407.5" width="40.75" height="40.75" fill="#7d4496"/><polygon points="529.75,407.5 570.5,448.25 529.75,448.25" fill="#7f5f8d"/><rect x="489" y="448.25" width="40.75" height="40.75" fill="#7e5690"/><polygon points="489,448.25 529.75,448.25 529.75,489" fill="#b56276"/><rect x="529.75" y="448.25" width="40.75" height="40.75" fill="#7912a5"/><polygon points="529.75,448.25 570.5,448.25 529.75,489" fill="#7e4d93"/><rect x="570.5" y="407.5" width="81.5" height="81.5" fill="#828282"/><rect x="570.5" y="407.5" width="40.75" height="40.75" fill="#877f81"/><polygon points="611.25,407.5 611.25,448.25 570.5,448.25" fill="#b16577"/><rect x="611.25" y="407.5" width="40.75" height="40.75" fill="#828182"/><polygon points="611.25,407.5 652,448.25 611.25,448.25" fill="#9f707b"/><rect x="570.5" y="448.25" width="40.75" height="40.75" fill="#ff3565"/><polygon points="570.5,448.25 611.25,448.25 611.25,489" fill="#dd4a6d"/><rect x="611.25" y="448.25" width="40.75" height="40.75" fill="#7f5790"/><polygon points="611.25,448.25 652,448.25 611.25,489" fill="#817088"/><rect x="652" y="407.5" width="81.5" height="81.5" fill="#858081"/><polygon points="652,407.5 733.5,407.5 652,489" fill="#7f5b8e"/><rect x="733.5" y="407.5" width="81.5" height="81.5" fill="#828282"/><rect x="733.5" y="407.5" width="40.75" height="40.75" fill="#7b289e"/><path d="M 733.5 448.25 A 40.75 40.75 0 0 0 774.25 407.5 L 733.5 407.5" fill="#817686"/><rect x="774.25" y="407.5" width="40.75" height="40.75" fill="#7f5e8d"/><path d="M 774.25 407.5 A 40.75 40.75 0 0 0 815 448.25 L 815 407.5" fill="#f33c68"/><rect x="733.5" y="448.25" width="40.75" height="40.75" fill="#817287"/><path d="M 733.5 448.25 A 40.75 40.75 0 0 1 774.25 489 L 733.5 489" fill="#817187"/><rect x="774.25" y="448.25" width="40.75" height="40.75" fill="#7a1ba2"/><path d="M 774.25 489 A 40.75 40.75 0 0 1  815 448.25 L 815 489" fill="#91797e"/><rect x="815" y="407.5" width="81.5" height="81.5" fill="#828282"/><rect x="815" y="407.5" width="40.75" height="40.75" fill="#d15170"/><path d="M 815 448.25 A 40.75 40.75 0 0 0 855.75 407.5 L 815 407.5" fill="#ea426a"/><rect x="855.75" y="407.5" width="40.75" height="40.75" fill="#7a1ea1"/><path d="M 855.75 407.5 A 40.75 40.75 0 0 0 896.5 448.25 L 896.5 407.5" fill="#7e5490"/><rect x="815" y="448.25" width="40.75" height="40.75" fill="#7f5e8d"/><path d="M 815 448.25 A 40.75 40.75 0 0 1 855.75 489 L 815 489" fill="#a36e7a"/><rect x="855.75" y="448.25" width="40.75" height="40.75" fill="#7a19a3"/><path d="M 855.75 489 A 40.75 40.75 0 0 1  896.5 448.25 L 896.5 489" fill="#dd4a6d"/></g></svg>